<svg id="Layer_1" data-name="Layer 1" xmlns="http://www.w3.org/2000/svg" xmlns:xlink="http://www.w3.org/1999/xlink" viewBox="0 0 122.12 12.34"><defs><style>.cls-1{fill:#fff;}.cls-2{fill:url(#linear-gradient);}.cls-3{fill:url(#linear-gradient-2);}.cls-4{fill:url(#linear-gradient-3);}.cls-5{fill:url(#linear-gradient-4);}.cls-6{fill:url(#linear-gradient-5);}.cls-7{fill:url(#linear-gradient-6);}</style><linearGradient id="linear-gradient" x1="69.14" y1="17.13" x2="77.53" y2="17.13" gradientUnits="userSpaceOnUse"><stop offset="0" stop-color="#ef579b"/><stop offset="1" stop-color="#ef5697"/></linearGradient><linearGradient id="linear-gradient-2" x1="78.57" y1="17.13" x2="82.22" y2="17.13" gradientUnits="userSpaceOnUse"><stop offset="0" stop-color="#ef5693"/><stop offset="1" stop-color="#ef568e"/></linearGradient><linearGradient id="linear-gradient-3" x1="83.76" y1="17.13" x2="94.18" y2="17.13" gradientUnits="userSpaceOnUse"><stop offset="0" stop-color="#ef568d"/><stop offset="1" stop-color="#f05689"/></linearGradient><linearGradient id="linear-gradient-4" x1="95.51" y1="17.13" x2="106.23" y2="17.13" gradientUnits="userSpaceOnUse"><stop offset="0" stop-color="#f0567c"/><stop offset="1" stop-color="#f05777"/></linearGradient><linearGradient id="linear-gradient-5" x1="107.21" y1="17.13" x2="116.16" y2="17.13" gradientUnits="userSpaceOnUse"><stop offset="0" stop-color="#f05775"/><stop offset="1" stop-color="#f0596f"/></linearGradient><linearGradient id="linear-gradient-6" x1="116.57" y1="17.13" x2="124.96" y2="17.13" gradientUnits="userSpaceOnUse"><stop offset="0" stop-color="#f15a69"/><stop offset="1" stop-color="#f15a65"/></linearGradient></defs><title>logo</title><path class="cls-1" d="M9.91,18.62l3.33.2a4.85,4.85,0,0,1-1.61,3.35,5.07,5.07,0,0,1-3.4,1.17,5.13,5.13,0,0,1-3.91-1.6,6.28,6.28,0,0,1-1.49-4.43A6.86,6.86,0,0,1,4.24,12.8a4.82,4.82,0,0,1,3.94-1.72,4.82,4.82,0,0,1,3.63,1.31,5.34,5.34,0,0,1,1.43,3.46L9.84,16a2.61,2.61,0,0,0-.46-1.73,1.38,1.38,0,0,0-1.08-.53c-1.15,0-1.72,1.16-1.72,3.47A5.36,5.36,0,0,0,7,19.89a1.43,1.43,0,0,0,1.26.7C9.25,20.59,9.79,19.93,9.91,18.62Z" transform="translate(-2.83 -11)"/><path class="cls-1" d="M18.23,11.26v11.9H14.58V11.26Z" transform="translate(-2.83 -11)"/><path class="cls-1" d="M30.47,23.16h-3L24.24,17.9A18.55,18.55,0,0,1,23,15.44a8.35,8.35,0,0,1,.28,2v5.76h-3V11.26h3.45l2.77,4.36a17.84,17.84,0,0,1,1.26,2.28,16.84,16.84,0,0,1-.28-3.12V11.26h3Z" transform="translate(-2.83 -11)"/><path class="cls-1" d="M41.49,20.32v2.84h-9V11.26h9V14H36.12v1.72h4.34v2.64H36.12v1.95Z" transform="translate(-2.83 -11)"/><path class="cls-1" d="M55.87,11.26v11.9H52.48V14.65l-2.2,8.51H48l-2.29-8.51v8.51H42.94V11.26h4.77l1.72,6.32,1.65-6.32Z" transform="translate(-2.83 -11)"/><path class="cls-1" d="M64.5,23.16l-.67-2.35H60.64l-.71,2.35H57l3.67-11.9h3.86l3.73,11.9Zm-3.24-4.94h1.93l-1-3.45Z" transform="translate(-2.83 -11)"/><path class="cls-2" d="M75.07,14v9H71.61V14H69.14V11.18h8.39V14Z" transform="translate(-2.83 -11)"/><path class="cls-3" d="M82.22,11.18v11.9H78.57V11.18Z" transform="translate(-2.83 -11)"/><path class="cls-4" d="M90.84,18.54l3.34.2a4.88,4.88,0,0,1-1.62,3.35,5.06,5.06,0,0,1-3.39,1.17,5.14,5.14,0,0,1-3.92-1.6,6.28,6.28,0,0,1-1.49-4.43,6.82,6.82,0,0,1,1.42-4.51,5.5,5.5,0,0,1,7.56-.41,5.35,5.35,0,0,1,1.44,3.46L90.77,16a2.61,2.61,0,0,0-.46-1.73,1.38,1.38,0,0,0-1.07-.53c-1.15,0-1.73,1.16-1.73,3.47A5.36,5.36,0,0,0,88,19.81a1.43,1.43,0,0,0,1.26.7C90.18,20.51,90.72,19.85,90.84,18.54Z" transform="translate(-2.83 -11)"/><path class="cls-5" d="M106.23,23.08h-4l-2.06-4.5L99,20.33v2.75H95.51V11.18H99V16.1l3.28-4.92h3.28l-3,4.36Z" transform="translate(-2.83 -11)"/><path class="cls-6" d="M116.16,20.24v2.84h-9V11.18h9v2.75h-5.37v1.72h4.34v2.64h-4.34v1.95Z" transform="translate(-2.83 -11)"/><path class="cls-7" d="M122.49,14v9H119V14h-2.46V11.18H125V14Z" transform="translate(-2.83 -11)"/></svg>