<?xml version="1.0" encoding="utf-8"?>
<!-- Generator: Adobe Illustrator 23.1.0, SVG Export Plug-In . SVG Version: 6.00 Build 0)  -->
<svg version="1.1" id="Capa_1" xmlns="http://www.w3.org/2000/svg" xmlns:xlink="http://www.w3.org/1999/xlink" x="0px" y="0px"
	 viewBox="0 0 42 42" style="enable-background:new 0 0 42 42;" xml:space="preserve">
<style type="text/css">
	.st0{fill:none;}
	.st1{fill:#242424;}
	.st2{fill:#FEFEFE;}
	.st3{fill:#F65E5E;}
</style>
<g>
	<g>
		<path class="st0" d="M36,38c-0.9-0.2-1.9-0.2-2.8-0.2c-1.5,0-3.3-0.1-3.7-0.8c-0.9-1.7-1.9-2.4-3.2-2.4c-0.5,0-1,0.1-1.5,0.2
			c-0.5,0.1-0.9,0.2-1.4,0.2c-0.1,0-0.2,0-0.3,0c-2.1,0-4.3-1.4-6-3.7c-0.2-0.3-0.4-0.6-0.6-1c-0.7-1.2-1.6-2.6-3.6-2.6
			c-0.3,0-0.7,0-1.1,0.1c0,0,0,0,0,0c-0.4,0-0.7-0.6-0.8-1.9c-0.2-1.7-1-2.5-2-3.3c-0.2-0.1-0.4-0.3-0.5-0.4
			c-0.9-0.7-1.8-1.4-1.9-2.1c-0.1-0.5,0.2-1.1,0.8-1.8c0.6-0.7,0.4-1.8-0.5-2.5C5,14.2,4.5,12.2,4,10C3.9,9.7,3.9,9.3,3.8,9
			C3.7,8.7,3.7,8.7,4,8.5c0.1-0.1,0.2-0.1,0.2-0.1c0,0,0,0,0,0C5,9.4,5.9,10,6.9,10c0.8,0,1.7-0.4,2.8-1.2c0.3-0.2,0.5-0.3,0.6-0.4
			c0.1,0.1,0.1,0.4,0.2,0.8c0.6,3.6,4.5,5.6,7.8,5.6c0,0,0,0,0,0c1.6,0,3.1-0.5,4.3-1.3c1.6-1.2,3.2-1.8,4.7-1.8c1.7,0,3.3,0.7,5,2
			c0.5,0.4,1.1,0.6,1.7,0.8c1.3,0.5,1.5,0.6,1.4,1.3l0,0.1l0,0.1c0,0.9-0.3,1.8-0.6,2.6c-0.4,1.1-0.9,2.3-0.4,3.6
			c0.1,0.3,0.1,0.7,0.1,1.1c0,1-0.1,2.7,2.1,3.3c0,0.1-0.1,0.2-0.2,0.3c-0.9,0.9-1.3,1.7-1.2,2.6c0.1,1.3,1.3,2.1,2.3,2.9l0.3,0.3
			c0.4,0.3,0.5,0.4,0.6,0.7c0.1,0.6-0.5,2.2-0.9,2.5l-0.1,0.1c-0.1,0.1-0.2,0.1-0.3,0.2c-0.7,0.4-0.8,1.2-0.9,1.7
			c0,0.1,0,0.3-0.1,0.4C36.1,38,36,38,36,38z"/>
		<path class="st1" d="M9.8,9.6c0.8,3.9,4.9,5.9,8.5,5.9c1.8,0,3.5-0.5,4.8-1.5c1.5-1.1,2.9-1.6,4.3-1.6c1.5,0,3,0.6,4.6,1.9
			c0.6,0.5,1.3,0.7,1.9,0.9c0.3,0.1,0.7,0.3,0.9,0.4c0,0,0,0,0,0.1l0,0.1l0,0.1c0,0.8-0.3,1.5-0.6,2.3c-0.4,1.2-0.9,2.5-0.4,4.1
			c0.1,0.2,0,0.5,0,0.8c0,0.9-0.1,2.7,1.6,3.6c-0.7,0.9-1,1.7-0.9,2.6c0.1,1.6,1.5,2.6,2.6,3.4l0.2,0.1l0.1,0.1
			c0.1,0.1,0.2,0.2,0.3,0.2c0,0.4-0.3,1.5-0.6,1.8l-0.1,0c-0.1,0-0.1,0.1-0.2,0.1c-0.9,0.5-1.1,1.3-1.2,1.9
			c-0.7-0.1-1.5-0.1-2.3-0.1c-0.8,0-2.8-0.1-3-0.4c-0.7-1.2-1.8-2.8-3.9-2.8c-0.6,0-1.1,0.1-1.7,0.2c-0.4,0.1-0.9,0.2-1.3,0.2
			c-0.1,0-0.1,0-0.2,0c-1.8,0-3.8-1.3-5.4-3.4c-0.2-0.3-0.4-0.6-0.6-0.9c-0.8-1.2-1.8-3-4.3-3c-0.3,0-0.6,0-1,0.1
			c-0.1-0.2-0.2-0.6-0.3-1.2c-0.2-2-1.2-3-2.3-3.8c-0.2-0.1-0.4-0.3-0.6-0.4C8,21,7.2,20.4,7.1,19.9c0-0.3,0.2-0.7,0.6-1.2
			c0.9-1,0.6-2.5-0.6-3.6c-1.4-1.3-1.9-3-2.3-5.1c0.6,0.5,1.3,0.7,2.1,0.7C8,10.7,9,10.1,9.8,9.6 M10.4,7.6c-0.3,0-0.7,0.3-1.2,0.6
			c-0.8,0.6-1.6,1-2.3,1c-0.7,0-1.4-0.4-2-1.3C4.7,7.7,4.5,7.6,4.2,7.6C4,7.6,3.8,7.7,3.5,7.9C3,8.2,2.9,8.6,3.1,9.2
			c0.6,2.5,1,5.2,3.1,7.1c0.5,0.5,0.8,1.1,0.4,1.5c-2.3,2.8,0,4,1.8,5.4c1,0.8,1.6,1.4,1.8,2.8c0.1,0.8,0.3,2.6,1.5,2.6
			c0.1,0,0.2,0,0.2,0c0.4-0.1,0.7-0.1,1-0.1c2.1,0,2.6,1.8,3.6,3.3c1.6,2.2,4,4,6.6,4c0.1,0,0.2,0,0.3,0c1.1-0.1,2-0.4,2.9-0.4
			c0.9,0,1.7,0.4,2.6,2c0.9,1.7,4.6,1,7,1.5c0.1,0,0.2,0,0.3,0c1.1,0,0.4-1.8,1.2-2.2c0.1-0.1,0.3-0.2,0.4-0.3
			c0.7-0.5,1.3-2.4,1.2-3.2c-0.1-0.7-0.5-0.9-1-1.3c-1.6-1.1-3.4-2.3-1.2-4.5c0.4-0.4,0.6-1.4-0.1-1.5c-2.4-0.5-1.3-2.6-1.7-3.9
			c-0.6-1.9,1-3.5,1.1-5.9c0.4-2.1-2.1-1.9-3.3-2.8c-1.9-1.5-3.7-2.2-5.5-2.2c-1.7,0-3.4,0.7-5.2,1.9c-1.1,0.8-2.5,1.2-3.9,1.2
			c-3.2,0-6.5-1.9-7-5C11,8,10.8,7.6,10.4,7.6L10.4,7.6z"/>
	</g>
	<g>
		<ellipse class="st2" cx="22.4" cy="25.1" rx="4.2" ry="2.1"/>
		<path class="st1" d="M22.4,27.9c-2.8,0-5-1.2-5-2.9s2.1-2.9,5-2.9s5,1.2,5,2.9S25.2,27.9,22.4,27.9z M22.4,23.7
			c-2.1,0-3.5,0.8-3.5,1.4s1.4,1.4,3.5,1.4s3.5-0.8,3.5-1.4S24.5,23.7,22.4,23.7z"/>
	</g>
	<g>
		<g>
			<path class="st3" d="M23,24l5.8-8.6c3-5-0.6-11.4-6.4-11.4h0c-5.8,0-9.4,6.4-6.4,11.4l5.8,8.6C22,24.4,22.7,24.4,23,24z"/>
			<path class="st1" d="M22.3,25.1c-0.5,0-1-0.3-1.3-0.7l-5.8-8.6c-1.6-2.6-1.6-5.7-0.1-8.3s4.2-4.2,7.2-4.2s5.7,1.6,7.2,4.2
				s1.4,5.7-0.1,8.3l-5.8,8.6C23.3,24.8,22.9,25.1,22.3,25.1C22.3,25.1,22.3,25.1,22.3,25.1z M22.3,23.5L22.3,23.5L22.3,23.5
				L22.3,23.5z M22.3,4.7c-2.5,0-4.7,1.3-5.9,3.4c-1.2,2.1-1.2,4.7,0.1,6.8l5.8,8.6l5.8-8.6c1.3-2.1,1.3-4.6,0.1-6.8
				C27,6,24.8,4.7,22.3,4.7z"/>
		</g>
		<g>
			<circle class="st2" cx="22.3" cy="11.3" r="3.7"/>
			<path class="st1" d="M22.3,15.8c-2.5,0-4.5-2-4.5-4.5c0-2.5,2-4.5,4.5-4.5c2.5,0,4.5,2,4.5,4.5C26.8,13.8,24.8,15.8,22.3,15.8z
				 M22.3,8.4c-1.6,0-3,1.3-3,3c0,1.6,1.3,3,3,3c1.6,0,3-1.3,3-3C25.3,9.7,24,8.4,22.3,8.4z"/>
		</g>
	</g>
</g>
</svg>
