<svg fill="#9D9D9D" version="1.1" id="Layer_1" xmlns="http://www.w3.org/2000/svg" xmlns:xlink="http://www.w3.org/1999/xlink" x="0px"
     y="0px"
     viewBox="0 0 50 50" style="enable-background:new 0 0 50 50;" xml:space="preserve">
<path fill="#9D9D9D" d="M18.7,9c0.5-0.9,1.3-1.7,2.4-2.3c1-0.5,2.2-0.8,3.5-0.9V5.4C24.7,5.2,24.9,5,25,5c0.2,0,0.4,0.2,0.4,0.4v0.4
	c1.3,0,2.5,0.4,3.5,0.9c1.1,0.5,1.9,1.3,2.4,2.3c0.4,0.1,0.9,0.3,1.2,0.6c0.3,0.3,0.5,0.7,0.6,1.2h1.3c0.9,0,1.8,0.4,2.4,1
	c0.6,0.6,1,1.5,1,2.4v1.5h0.4c0.2,0,0.4,0.2,0.4,0.4s-0.2,0.4-0.4,0.4h-0.1l-0.5,2.4h0.1c0.2,0,0.4,0.2,0.4,0.4l-0.4,3.9l0.3,15h1
	c0.3,0,0.6,0.1,0.8,0.3l0,0c0.2,0.2,0.3,0.4,0.3,0.7v0.7h0.5c0.3,0,0.6,0.1,0.8,0.3c0.2,0.2,0.3,0.5,0.3,0.8v0.7h0.5
	c0.3,0,0.6,0.1,0.8,0.3c0.2,0.2,0.3,0.5,0.3,0.8v1.1c0,0.2-0.2,0.4-0.4,0.4H6.7c-0.2,0-0.4-0.2-0.4-0.4v-1.1c0-0.3,0.1-0.6,0.3-0.8
	c0.2-0.2,0.5-0.3,0.8-0.3h0.5v-0.7c0-0.3,0.1-0.6,0.3-0.8c0.2-0.2,0.5-0.3,0.8-0.3h0.5v-0.7c0-0.3,0.1-0.6,0.3-0.8h0
	c0.2-0.2,0.4-0.3,0.7-0.3h1l0.3-15l-0.4-3.9c0-0.2,0.1-0.4,0.4-0.4h0.1l-0.5-2.4h-0.1c-0.2,0-0.4-0.2-0.4-0.4s0.2-0.4,0.4-0.4H12
	v-1.5c0-0.9,0.4-1.8,1-2.4c0.6-0.6,1.5-1,2.4-1h1.3c0.1-0.4,0.3-0.9,0.6-1.2h0C17.8,9.3,18.2,9.1,18.7,9z M31.7,43.1
	c-0.2,0-0.4-0.2-0.4-0.4c0-0.2,0.2-0.4,0.4-0.4h0.9c0.2,0,0.4,0.2,0.4,0.4c0,0.2-0.2,0.4-0.4,0.4H31.7z M21.4,10.9L21.4,10.9h7.4h0
	h0h3.6c0-0.2-0.2-0.4-0.3-0.6c-0.2-0.2-0.6-0.4-1-0.4h-2c-0.2,0-0.4-0.2-0.4-0.4c0-0.2,0.2-0.4,0.4-0.4h1.4c-0.4-0.6-1-1.1-1.8-1.5
	c-1-0.5-2.2-0.8-3.5-0.8l0,0l0,0c-1.3,0-2.5,0.3-3.5,0.8c-0.7,0.4-1.3,0.9-1.8,1.5h7.4c0.2,0,0.4,0.2,0.4,0.4s-0.2,0.4-0.4,0.4h-8.1
	c-0.4,0-0.7,0.1-1,0.4l0,0c-0.1,0.1-0.3,0.3-0.3,0.6L21.4,10.9L21.4,10.9L21.4,10.9z M21.3,11.7c-0.4,0-0.7,0.2-0.9,0.5
	c-0.3,0.3-0.4,0.7-0.4,1.2v2.4h1.8l0,0l0,0h2.2l0,0l0,0h2.2l0,0l0,0h2.2l0,0l0,0h1.8v-2.4c0-0.5-0.1-0.9-0.4-1.2
	c-0.2-0.3-0.6-0.4-0.9-0.5H21.3z M19,15.9v-2.4c0-0.6,0.2-1.2,0.6-1.7h-2.4l0,0h-1.7c-0.7,0-1.3,0.3-1.8,0.7
	c-0.4,0.4-0.7,1.1-0.7,1.8v1.5h2l0,0l0,0h2.2l0,0l0,0C17.2,15.9,19,15.9,19,15.9z M35.6,16.7v0.7c0,0.2-0.2,0.4-0.4,0.4
	c-0.2,0-0.4-0.2-0.4-0.4v-0.7h-1.4v0.7c0,0.2-0.2,0.4-0.4,0.4c-0.2,0-0.4-0.2-0.4-0.4v-0.7H31v1.5c0,0.2-0.2,0.4-0.4,0.4
	s-0.4-0.2-0.4-0.4v-1.5h-1.4v0.7c0,0.2-0.2,0.4-0.4,0.4s-0.4-0.2-0.4-0.4v-0.7h-1.4v0.7c0,0.2-0.2,0.4-0.4,0.4s-0.4-0.2-0.4-0.4
	v-0.7h-1.4v0.7c0,0.2-0.2,0.4-0.4,0.4s-0.4-0.2-0.4-0.4v-0.7h-1.4v0.7c0,0.2-0.2,0.4-0.4,0.4s-0.4-0.2-0.4-0.4v-0.7h-1.4v1.5
	c0,0.2-0.2,0.4-0.4,0.4s-0.4-0.2-0.4-0.4v-1.5h-1.4v0.7c0,0.2-0.2,0.4-0.4,0.4s-0.4-0.2-0.4-0.4v-0.7h-1.4v0.7
	c0,0.2-0.2,0.4-0.4,0.4S14,17.7,14,17.4v-0.7h-1.9l0.5,2.4h1.8l0,0h6l0,0H29l0,0h6l0,0h1.8l0.5-2.4H35.6L35.6,16.7z M30.8,24
	c-0.2,0-0.4-0.2-0.4-0.4s0.2-0.4,0.4-0.4h0.3l0.3-3.1h-1.9l0.3,3.5l0,0l0,0l0,0l0,0l0,0l0,0l0,0l0,0l0,0l0,0l-0.3,13.9v0v0v1.1h1.9
	L31.1,24H30.8z M31.9,23.5l0.3,15h2.3l0.4-15L34.7,20h-2.4L31.9,23.5z M28.6,38.5v-1.1l0,0c0-0.3-0.1-0.5-0.3-0.7s-0.4-0.3-0.7-0.3
	h-5.1c-0.3,0-0.5,0.1-0.7,0.3c-0.1,0.1-0.2,0.3-0.3,0.6l0,1.3C21.5,38.5,28.6,38.5,28.6,38.5z M28.7,35.8L29,23.6L28.7,20h-7.3
	l-0.3,3.6l0.3,12.2c0.3-0.2,0.7-0.3,1.1-0.3h5.1C28,35.4,28.4,35.6,28.7,35.8z M37.1,23.1l0.3-3.1h-1.9l0.3,3.5l0,0l0,0l0,0l0,0l0,0
	l0,0l0,0l0,0l0,0l0,0l-0.3,15h1.9L37.1,24h-0.2c-0.2,0-0.4-0.2-0.4-0.4s0.2-0.4,0.4-0.4L37.1,23.1L37.1,23.1z M12.6,38.5h1.9
	l-0.3-15l0,0l0,0l0,0l0,0l0,0l0,0l0,0l0,0l0,0l0,0l0.3-3.5h-1.7l0,0h-0.1l0.3,3.1h0.3c0.2,0,0.4,0.2,0.4,0.4c0,0.2-0.2,0.4-0.4,0.4
	H13C13,24,12.6,38.5,12.6,38.5z M15.4,38.5h2.3l0.3-15L17.8,20h-2.4l-0.3,3.6L15.4,38.5z M20.2,23.6L20.2,23.6L20.2,23.6L20.2,23.6
	L20.2,23.6L20.2,23.6L20.2,23.6L20.2,23.6L20.2,23.6L20.2,23.6L20.2,23.6l0.3-3.5h-1.9l0.3,3.1h0.3c0.2,0,0.4,0.2,0.4,0.4
	S19.5,24,19.3,24H19l-0.3,14.6h1.9l0-1c0,0,0-0.1,0-0.1c0-0.1,0-0.1,0-0.2L20.2,23.6L20.2,23.6z M30.5,11.7c0.3,0.4,0.6,1,0.6,1.7
	v2.4h1.8l0,0l0,0h2.2l0,0l0,0h2v-1.5c0-0.7-0.3-1.3-0.7-1.8c-0.4-0.4-1.1-0.7-1.8-0.7h-1.7l0,0C32.9,11.7,30.5,11.7,30.5,11.7z
	 M8.4,43.1H7.4c0,0-0.1,0-0.2,0.1c0,0-0.1,0.1-0.1,0.2v0.7h35.7v-0.7c0,0,0-0.1-0.1-0.2c0,0-0.1-0.1-0.2-0.1h-0.9l0,0l0,0h-5.1
	c-0.2,0-0.4-0.2-0.4-0.4c0-0.2,0.2-0.4,0.4-0.4h4.7v-0.7c0,0,0-0.1-0.1-0.2c0,0-0.1-0.1-0.2-0.1h-0.9l0,0l0,0H15.9
	c-0.2,0-0.4-0.2-0.4-0.4s0.2-0.4,0.4-0.4h23.8v-0.7c0,0,0-0.1,0-0.1l0,0c-0.1,0-0.1,0-0.2,0h-4.3l0,0H29l0,0h-8l0,0h-6l0,0h-4.3
	c0,0-0.1,0-0.1,0l0,0c0,0-0.1,0.1-0.1,0.2v0.7H12c0.2,0,0.4,0.2,0.4,0.4c0,0.2-0.2,0.4-0.4,0.4h-1.9l0,0l0,0h-1c0,0-0.1,0-0.2,0.1
	s-0.1,0.1-0.1,0.2v0.7h21.4c0.2,0,0.4,0.2,0.4,0.4c0,0.2-0.2,0.4-0.4,0.4L8.4,43.1L8.4,43.1L8.4,43.1z"/>
</svg>
