<svg id="Layer_1" data-name="Layer 1" xmlns="http://www.w3.org/2000/svg" viewBox="0 0 88 88"><title>azadi_tower_tehran</title><path fill="#9D9D9D" d="M51.45,15.53h.3v0h.11v0h0l2.7,2.09h4.63a.63.63,0,0,1,.64.64l1.26,25.35a.64.64,0,0,1-1.28.07L58.62,19.06H55v11a.64.64,0,1,1-1.28,0V18.73l-1.62-1.24V30.08a20.86,20.86,0,0,0,2.06,8.8A20.49,20.49,0,0,0,59.64,46L87.79,71.35a.64.64,0,0,1,0,.91.62.62,0,0,1-.47.21H58.47a.64.64,0,0,1-.63-.53L52,50.73A27,27,0,0,0,50,45a9.64,9.64,0,0,0-3-3.34l-3-2.16-3,2.16A9.71,9.71,0,0,0,38,45a27.74,27.74,0,0,0-2,5.7l-.85,3.05c.28-.37.56-.74.87-1.09a13,13,0,0,1,5.12-3.85h0a8.13,8.13,0,0,1,6.28.18,12.36,12.36,0,0,1,2.94,1.86.65.65,0,0,1-.84,1,10.91,10.91,0,0,0-2.61-1.68A6.87,6.87,0,0,0,41.61,50h0A11.91,11.91,0,0,0,37,53.52a21.41,21.41,0,0,0-3.18,5.15L30.16,71.94a.63.63,0,0,1-.63.53H.64a.62.62,0,0,1-.47-.21.64.64,0,0,1,0-.91L28.36,46a20.51,20.51,0,0,0,5.47-7.14,20.85,20.85,0,0,0,2.05-8.8V17.49l-1.61,1.24V30.08a.64.64,0,0,1-1.28,0v-11H29.38L28.15,43.84a.63.63,0,0,1-.66.6.65.65,0,0,1-.62-.67l1.25-25.35a.64.64,0,0,1,.65-.64h4.64l2.69-2.09h0l0,0h.09v0h15.2ZM24.11,63.79a.64.64,0,0,1,1.07.69L20.8,71.19H29l3.5-12.74a.67.67,0,0,1,.05-.19v0l2.15-7.83a28.46,28.46,0,0,1,2.11-6,10.77,10.77,0,0,1,3.43-3.76l3.32-2.42h0v0h.1v0h.56v0h.11v0h0l3.31,2.42a10.67,10.67,0,0,1,3.43,3.76,28.39,28.39,0,0,1,2.12,6L59,71.19h8.23l-4.36-6.71a.61.61,0,0,1,.18-.87.64.64,0,0,1,.89.18l4.83,7.4H75.8L65,59.26a.65.65,0,0,1,0-.91.64.64,0,0,1,.9,0L77.53,71.19h8.16L58.81,47A21.87,21.87,0,0,1,53,39.41a22.07,22.07,0,0,1-2.18-9.33V16.81H37.16V30.08A21.92,21.92,0,0,1,35,39.41,21.75,21.75,0,0,1,29.19,47L2.32,71.19h8.14l14.4-15.86a.63.63,0,0,1,.9,0,.63.63,0,0,1,0,.9l-13.61,15h7.07l4.84-7.4ZM64,56.3a.64.64,0,1,1-.95.86l-.87-1a.62.62,0,0,1,0-.9.64.64,0,0,1,.91,0ZM38.42,18.68a.65.65,0,1,1,1.29,0v2.76a.65.65,0,0,1-1.29,0Zm2.47,0a.64.64,0,1,1,1.28,0v2.76a.64.64,0,0,1-.64.64.64.64,0,0,1-.64-.64Zm2.47,0a.64.64,0,1,1,1.28,0v2.76a.64.64,0,1,1-1.28,0Zm2.47,0a.65.65,0,1,1,1.29,0v2.76a.65.65,0,0,1-1.29,0Zm2.47,0a.64.64,0,1,1,1.28,0v2.76a.64.64,0,0,1-.64.64.64.64,0,0,1-.64-.64Z"/></svg>
