<?xml version="1.0" encoding="utf-8"?>
<!-- Generator: Adobe Illustrator 25.0.0, SVG Export Plug-In . SVG Version: 6.00 Build 0)  -->
<svg version="1.1" id="Layer_1" xmlns="http://www.w3.org/2000/svg" xmlns:xlink="http://www.w3.org/1999/xlink" x="0px" y="0px"
	 viewBox="0 0 199.3 195.3" style="enable-background:new 0 0 199.3 195.3;" xml:space="preserve">
<style type="text/css">
	.st0{fill:none;stroke:white;stroke-miterlimit:10;}
</style>
<g>
	<polygon class="st0" points="64.1,176.4 93.3,160 190.6,160 190.6,81.6 109.3,81.6 109.3,89.1 101.2,89.1 101.2,95.6 91.3,95.6
		"/>
	<path class="st0" d="M112.5,111.4"/>
	<path class="st0" d="M190.6,81.6V38c0,0-5.2-14.6-12.8,0c0,0-5.6-14-12.8,0c0,0-5.4-13.5-12.6,0c0,0-4.7-12.8-12.8,0
		c0,0-4.3-13.3-12.2,0c0,0-4.7-13.1-11.7,0.2c0,0,2.3,41.2,1.6,43.5"/>
	<polyline class="st0" points="91.3,95.6 86.4,95.6 56.2,177.8 29.4,177.8 56.4,104.6 67.4,104.8 82.9,105.1 	"/>
	<polyline class="st0" points="67.4,104.8 67.2,58.7 5.3,46.5 	"/>
	<path class="st0" d="M115.6,38.2c0,0,2.9-19.1-9-18.9l-64.6,0c0,0-7,0.9-7,9.5s0,23.6,0,23.6"/>
	<path class="st0" d="M190.6,59.8h-43.5c0,0-18.7,2.3-19.8,21.8"/>
	<line class="st0" x1="93.6" y1="95.6" x2="93.3" y2="160"/>
	<path class="st0" d="M165.2,160v-38.3c0,0-1.6-14-14.4-14s-15.2,15.2-15.2,15.2V160"/>
	<path class="st0" d="M146.3,115.9c0,0,14-0.3,14,18s0.9,26.1,0.9,26.1"/>
</g>
</svg>
