<?xml version="1.0" encoding="utf-8"?>
<!-- Generator: Adobe Illustrator 25.0.0, SVG Export Plug-In . SVG Version: 6.00 Build 0)  -->
<svg version="1.1" id="Layer_1" xmlns="http://www.w3.org/2000/svg" xmlns:xlink="http://www.w3.org/1999/xlink" x="0px" y="0px"
	 viewBox="0 0 150 150" style="enable-background:new 0 0 150 150;" xml:space="preserve">
<style type="text/css">
	.st0{fill:none;stroke:white;stroke-miterlimit:10;}
	.st1{fill:#FFFFFF;stroke:white;stroke-miterlimit:10;}
</style>
<g id="Layer_1_1_">
	<path class="st0" d="M75,1c0,0-46.2,14.4-44.4,61.3l-5.3,6.5H10.1v74.5l24.9,5.3h79.9l25.4-4.9V68.1h-15.6l-4.4-6
		C120.3,62.1,125,16.3,75,1z"/>
	<path class="st0" d="M17.9,93.9h20.2c0,0-1.3-13.4-10.1-13.4S17.9,93.9,17.9,93.9z"/>
	<path class="st0" d="M112.4,93.9h19.3c0,0,1.6-14.2-9.6-14.2S112.4,93.9,112.4,93.9z"/>
	<line class="st0" x1="25.4" y1="68.8" x2="124.7" y2="68.1"/>
	<polyline class="st0" points="103.6,75 103.6,40.1 95.6,40.1 95.6,68.1 	"/>
	<polyline class="st0" points="45.9,87.2 45.9,39.4 54.8,39.4 54.8,68.1 	"/>
	<polyline class="st0" points="35,148.6 35,109.7 114,109.7 114,148.6 	"/>
	<line class="st0" x1="103.6" y1="83.4" x2="103.6" y2="109.7"/>
	<line class="st0" x1="45.9" y1="97.9" x2="45.9" y2="109.7"/>
	<path class="st0" d="M52.4,93.9h8.7V83.4c0,0-1.8-5.8-4.4-5.8s-4.2,4.2-4.4,7.1S52.4,93.9,52.4,93.9z"/>
	<path class="st0" d="M53.3,109.7c0,0,10-7.8,21.7-7.8s20.6,7.8,20.6,7.8"/>
	<path class="st0" d="M88.2,93.9h8.7V83.4c0,0-1.8-5.8-4.4-5.8c-2.5,0-4.2,4.2-4.4,7.1S88.2,93.9,88.2,93.9z"/>
	<path class="st0" d="M66.9,93.9h15.3V83.4c0,0-0.4-5.8-7.2-5.8s-8.1,5.8-8.1,5.8L66.9,93.9z"/>
	<polyline class="st0" points="30.6,62.3 45,62.3 31.1,51.2 	"/>
	<line class="st0" x1="54.8" y1="62.3" x2="95.6" y2="62.3"/>
	<line class="st0" x1="103.6" y1="62.3" x2="120.3" y2="62.3"/>
	<line class="st0" x1="119.6" y1="49" x2="107.6" y2="62.3"/>
	<line class="st0" x1="95.6" y1="53.2" x2="88.1" y2="62.3"/>
	<line class="st0" x1="54.8" y1="53.2" x2="63.3" y2="62.3"/>
	<polyline class="st0" points="66.2,62.3 75,51.2 83.5,62.3 	"/>
	<path class="st0" d="M83.5,148.6v-22.3c0,0-2.2-7.6-8.4-7.6s-8.8,8.5-8.8,8.5v21.4"/>
	<path class="st0" d="M56.7,136.8v-11.1c0,0-2.9-7.8-6.4-7.8s-6.8,9.4-6.8,9.4v9.4h13.2V136.8z"/>
	<path class="st0" d="M106.3,136.6v-11.1c0,0-2.9-7.8-6.4-7.8s-6.8,9.4-6.8,9.4v9.4h13.2C106.3,136.5,106.3,136.6,106.3,136.6z"/>
	<path class="st1" d="M17.9,123.1"/>
	<polyline class="st0" points="11.9,68.5 11.9,44.9 19.9,44.9 19.9,68.5 	"/>
	<polyline class="st0" points="130.3,67.4 130.3,43.8 138.3,43.8 138.3,67.4 	"/>
</g>
</svg>
