<?xml version="1.0" encoding="utf-8"?>
<!-- Generator: Adobe Illustrator 25.0.0, SVG Export Plug-In . SVG Version: 6.00 Build 0)  -->
<svg version="1.1" id="Layer_1" xmlns="http://www.w3.org/2000/svg" xmlns:xlink="http://www.w3.org/1999/xlink" x="0px" y="0px"
	 viewBox="0 0 150 150" style="enable-background:new 0 0 150 150;" xml:space="preserve">
<style type="text/css">
	.st0{fill:none;stroke:white;stroke-miterlimit:10;}
</style>
<g>
	<polygon class="st0" points="8.1,142 18.6,142 60.8,142 60.8,148.2 90.7,148.2 90.7,142 142.1,142 142.1,32 131.6,32 131.6,47.9
		114.4,47.9 114.4,44.1 35.9,44.1 35.9,48.1 18.6,48.1 18.6,32 8.1,32 	"/>
	<line class="st0" x1="18.6" y1="48.1" x2="18.6" y2="142"/>
	<line class="st0" x1="35.9" y1="48.1" x2="35.9" y2="142"/>
	<line class="st0" x1="131.6" y1="47.9" x2="131.6" y2="142"/>
	<line class="st0" x1="114.4" y1="47.9" x2="114.4" y2="142"/>
	<line class="st0" x1="101.5" y1="44.1" x2="101.5" y2="142"/>
	<polyline class="st0" points="48.8,44.1 48.8,51.8 48.8,142 	"/>
	<line class="st0" x1="101.5" y1="51.4" x2="48.8" y2="51.4"/>
	<line class="st0" x1="48.8" y1="97" x2="101.5" y2="97"/>
	<line class="st0" x1="101.5" y1="103.2" x2="48.8" y2="103.2"/>
	<line class="st0" x1="18.6" y1="92.4" x2="35.9" y2="92.4"/>
	<line class="st0" x1="35.9" y1="67" x2="18.6" y2="67"/>
	<line class="st0" x1="8.1" y1="44.1" x2="18.6" y2="44.1"/>
	<line class="st0" x1="131.6" y1="44.1" x2="142.1" y2="44.1"/>
	<line class="st0" x1="114.4" y1="67" x2="131.6" y2="67"/>
	<line class="st0" x1="114.4" y1="92.4" x2="131.6" y2="92.4"/>
	<path class="st0" d="M8.1,32c0,0,0-5.6,5.3-5.6s5.3,5.6,5.3,5.6"/>
	<path class="st0" d="M131.6,32c0,0,0-5.6,5.3-5.6s5.3,5.6,5.3,5.6"/>
	<path class="st0" d="M51,44.1c0,0,0-19.4,24.4-19.4s24.4,19.4,24.4,19.4"/>
	<path class="st0" d="M48.8,76.7c0,0,0-19.4,26.3-19.4s26.3,19.4,26.3,19.4"/>
	<path class="st0" d="M49.1,126.2c0,0,0-19.4,26.3-19.4s26.3,19.4,26.3,19.4"/>
	<path class="st0" d="M18.6,45.2c0,0,0-6.3,8.6-6.3s8.6,6.3,8.6,6.3"/>
	<path class="st0" d="M114.4,46c0,0,0-6.3,8.6-6.3s8.6,6.3,8.6,6.3"/>
	<polyline class="st0" points="18.6,79 27.3,71.4 35.4,79.5 	"/>
	<polyline class="st0" points="18.9,110.8 27.5,103.2 35.6,111.3 	"/>
	<polyline class="st0" points="114.6,79 123.2,71.4 131.4,79.5 	"/>
	<polyline class="st0" points="114.6,110.4 123.2,102.8 131.4,110.9 	"/>
	<polyline class="st0" points="112.5,44.1 112.5,32 105.5,32 103.3,32 103.9,44.1 	"/>
	<polyline class="st0" points="104.9,32 104.4,14.3 107.5,14.3 110,14.3 110.9,32 	"/>
	<line class="st0" x1="107.5" y1="1.8" x2="107.5" y2="14.3"/>
	<polyline class="st0" points="47.3,44.3 47.3,32.1 39.7,32.1 37.3,32.1 38.1,44.3 	"/>
	<polyline class="st0" points="39.7,32.1 39.2,14.5 42.3,14.5 44.8,14.5 45.7,32.1 	"/>
	<line class="st0" x1="42.3" y1="2" x2="42.3" y2="14.5"/>
</g>
</svg>
